<svg width="165" height="37" viewBox="0 0 165 37" fill="none" xmlns="http://www.w3.org/2000/svg">
<g clip-path="url(#clip0_111_6719)">
<path fill-rule="evenodd" clip-rule="evenodd" d="M52.1548 2.41046C52.1548 1.18302 53.1607 0.187988 54.4016 0.187988H58.3157C59.1989 0.187988 60.0549 0.490739 60.7378 1.04471L61.9285 2.01054L61.9582 2.03741C61.9857 2.02824 62.0132 2.01928 62.0407 2.01054C64.1889 1.32996 66.7952 1.20053 69.4553 1.20053C72.1154 1.20053 74.7217 1.32996 76.8698 2.01054C76.8974 2.01928 76.9249 2.02824 76.9523 2.03741L76.9821 2.01054L78.1728 1.04471C78.8557 0.490739 79.7117 0.187988 80.5948 0.187988H84.509C85.7499 0.187988 86.7558 1.18302 86.7558 2.41046V3.78435C86.7558 4.84734 86.3031 5.86116 85.5087 6.57709L84.5482 7.44284C84.0793 7.86549 83.5164 8.17309 82.9051 8.34078L82.6779 8.40312C83.5679 10.5039 84.0596 12.7494 84.0596 14.5659C84.0596 21.8731 79.4889 25.029 75.4615 27.8097C72.2899 29.9995 69.4553 31.9566 69.4553 35.5253C69.4553 31.9566 66.6207 29.9995 63.4491 27.8097C59.4217 25.029 54.8509 21.8731 54.8509 14.5659C54.8509 12.7494 55.3426 10.5039 56.2327 8.40312L56.0055 8.34078C55.3942 8.17309 54.8313 7.86549 54.3624 7.44284L53.4018 6.57709C52.6075 5.86116 52.1548 4.84734 52.1548 3.78435V2.41046ZM72.3762 20.5398C72.3762 20.8889 72.2223 21.2237 71.9484 21.4706C71.6746 21.7174 71.3031 21.8561 70.9157 21.8561C70.5813 21.8561 70.2587 21.7527 70.0005 21.5656C70.44 22.729 71.5645 23.8315 73.2749 22.0586C74.7849 20.4113 73.2077 16.9368 71.6713 14.8751C71.1592 14.1879 70.3184 13.8571 69.4553 13.8571C68.5922 13.8571 67.7514 14.1879 67.2393 14.8751C65.7028 16.9368 64.1257 20.4113 65.6357 22.0586C67.3461 23.8315 68.4706 22.729 68.91 21.5656C68.6519 21.7527 68.3293 21.8561 67.9949 21.8561C67.6075 21.8561 67.236 21.7174 66.9622 21.4706C66.6883 21.2237 66.5344 20.8889 66.5344 20.5398H72.3762ZM63.8625 10.2548H59.794L63.0004 12.7944C63.706 13.3532 64.7373 13.1746 65.1739 12.4179C65.7252 11.4626 64.993 10.2548 63.8625 10.2548ZM75.048 10.2548H79.1166L75.9102 12.7944C75.2046 13.3532 74.1733 13.1746 73.7367 12.4179C73.1854 11.4626 73.9176 10.2548 75.048 10.2548Z" fill="#72B800"/>
<path d="M91.603 25.2187H95.2074V11.6226H91.603V25.2187ZM91.603 9.50241H95.2074V6.26904H91.603V9.50241Z" fill="#355030"/>
<path d="M97.5293 29.6705H101.134V23.6809H101.187C101.955 24.847 103.201 25.6156 105.109 25.6156C108.608 25.6156 110.993 22.8328 110.993 18.4333C110.993 14.1928 108.687 11.251 105.083 11.251C103.227 11.251 101.955 12.1256 101.081 13.3182H101.001V11.622H97.5293V29.6705ZM104.341 22.6207C102.194 22.6207 101.054 21.0041 101.054 18.5393C101.054 16.101 101.955 14.1663 104.208 14.1663C106.434 14.1663 107.335 15.9685 107.335 18.5393C107.335 21.1101 106.169 22.6207 104.341 22.6207Z" fill="#355030"/>
<path d="M118.183 25.6156C121.576 25.6156 123.908 23.9724 123.908 21.2426C123.908 18.0622 121.39 17.4262 119.111 16.9491C117.176 16.5516 115.374 16.4456 115.374 15.2794C115.374 14.2988 116.302 13.7688 117.706 13.7688C119.243 13.7688 120.171 14.2988 120.33 15.7565H123.59C123.325 13.0267 121.337 11.251 117.759 11.251C114.658 11.251 112.22 12.6556 112.22 15.5975C112.22 18.5658 114.605 19.2284 117.044 19.7054C118.899 20.0765 120.621 20.209 120.621 21.5076C120.621 22.4617 119.72 23.0713 118.13 23.0713C116.514 23.0713 115.4 22.3822 115.162 20.8185H111.823C112.035 23.7074 114.234 25.6156 118.183 25.6156Z" fill="#355030"/>
<path d="M137.593 25.2186V11.6226H133.989V19.4674C133.989 21.2696 132.955 22.5418 131.259 22.5418C129.722 22.5418 129.006 21.6672 129.006 20.077V11.6226H125.428V20.6866C125.428 23.6549 127.124 25.5896 130.146 25.5896C132.054 25.5896 133.114 24.874 134.042 23.6284H134.121V25.2186H137.593Z" fill="#355030"/>
<path d="M139.924 25.218H143.529V17.3202C143.529 15.518 144.509 14.3518 145.967 14.3518C147.292 14.3518 148.061 15.1469 148.061 16.6841V25.218H151.665V17.3202C151.665 15.518 152.593 14.3518 154.103 14.3518C155.429 14.3518 156.197 15.1469 156.197 16.6841V25.218H159.802V16.0745C159.802 13.1062 158.185 11.251 155.323 11.251C153.6 11.251 152.169 12.1521 151.241 13.6362H151.188C150.525 12.2051 149.147 11.251 147.425 11.251C145.543 11.251 144.218 12.2051 143.476 13.4507H143.396V11.622H139.924V25.218Z" fill="#355030"/>
<path d="M0.604248 25.2187H4.20865V6.26904H0.604248V25.2187Z" fill="#355030"/>
<path d="M13.0213 25.6156C17.2353 25.6156 20.1241 22.4882 20.1241 18.4333C20.1241 14.3783 17.2353 11.251 13.0213 11.251C8.80728 11.251 5.91846 14.3783 5.91846 18.4333C5.91846 22.4882 8.80728 25.6156 13.0213 25.6156ZM13.0213 22.8593C10.795 22.8593 9.57591 21.0836 9.57591 18.4333C9.57591 15.783 10.795 13.9808 13.0213 13.9808C15.221 13.9808 16.4667 15.783 16.4667 18.4333C16.4667 21.0836 15.221 22.8593 13.0213 22.8593Z" fill="#355030"/>
<path d="M27.7894 29.856C29.8037 29.856 31.5529 29.379 32.6925 28.3189C33.6996 27.3913 34.3092 26.0926 34.3092 24.1844V11.622H30.8373V13.0532H30.7843C29.9627 11.9136 28.717 11.251 27.0209 11.251C23.5755 11.251 21.1372 13.8483 21.1372 17.9032C21.1372 22.0112 24.1055 24.3964 27.1269 24.3964C28.8496 24.3964 29.8832 23.7074 30.6783 22.8063H30.7578V24.2904C30.7578 26.1456 29.7772 27.1262 27.7364 27.1262C26.0668 27.1262 25.2982 26.4637 25.0066 25.6156H21.4287C21.7998 28.2659 24.079 29.856 27.7894 29.856ZM27.7364 21.5076C25.8812 21.5076 24.6621 20.156 24.6621 17.8502C24.6621 15.571 25.8812 14.1398 27.7099 14.1398C29.8832 14.1398 30.9433 15.836 30.9433 17.8237C30.9433 19.8379 30.0157 21.5076 27.7364 21.5076Z" fill="#355030"/>
<path d="M43.0703 25.6156C47.2843 25.6156 50.1731 22.4882 50.1731 18.4333C50.1731 14.3783 47.2843 11.251 43.0703 11.251C38.8563 11.251 35.9675 14.3783 35.9675 18.4333C35.9675 22.4882 38.8563 25.6156 43.0703 25.6156ZM43.0703 22.8593C40.8441 22.8593 39.6249 21.0836 39.6249 18.4333C39.6249 15.783 40.8441 13.9808 43.0703 13.9808C45.2701 13.9808 46.5157 15.783 46.5157 18.4333C46.5157 21.0836 45.2701 22.8593 43.0703 22.8593Z" fill="#355030"/>
<path d="M159.639 8.65458C159.639 8.0447 160.133 7.55029 160.744 7.55029H162.952C163.562 7.55029 164.057 8.0447 164.057 8.65458C164.057 9.26442 163.562 9.75888 162.952 9.75888H160.744C160.133 9.75888 159.639 9.26442 159.639 8.65458Z" fill="#355030"/>
</g>
<defs>
<clipPath id="clip0_111_6719">
<rect width="164.318" height="36.2207" fill="white"/>
</clipPath>
</defs>
</svg>
